<?xml version="1.0" standalone="no"?>
<!DOCTYPE svg PUBLIC "-//W3C//DTD SVG 20010904//EN"
 "http://www.w3.org/TR/2001/REC-SVG-20010904/DTD/svg10.dtd">
<svg version="1.0" xmlns="http://www.w3.org/2000/svg"
 width="1024.000000pt" height="604.000000pt" viewBox="0 0 1024.000000 604.000000"
 preserveAspectRatio="xMidYMid meet">

<g transform="translate(0.000000,604.000000) scale(0.100000,-0.100000)"
fill="#10B981" stroke="none">
<path d="M4350 4631 c-131 -42 -213 -103 -283 -209 -46 -68 -87 -171 -87 -215
0 -34 -16 -44 -104 -67 -102 -26 -167 -62 -240 -135 -65 -64 -114 -146 -140
-234 -20 -68 -21 -217 -1 -290 44 -168 178 -313 333 -361 52 -16 113 -18 632
-22 l575 -3 0 575 c0 571 0 575 -23 634 -61 162 -189 279 -361 330 -75 22
-229 21 -301 -3z"/>
<path d="M5581 4634 c-164 -44 -296 -168 -353 -333 -23 -66 -23 -68 -23 -636
l0 -570 565 2 c531 3 569 4 630 22 138 42 244 137 313 280 38 78 41 90 45 191
4 92 1 119 -18 181 -32 106 -55 146 -129 222 -79 82 -144 121 -247 147 -43 11
-84 26 -90 33 -6 6 -16 37 -23 68 -39 185 -193 344 -381 394 -70 19 -219 18
-289 -1z"/>
<path d="M3870 2923 c-14 -2 -62 -22 -108 -44 -371 -178 -384 -723 -22 -936
25 -15 85 -39 135 -53 76 -22 91 -30 97 -51 50 -175 77 -228 159 -310 193
-193 525 -199 737 -13 65 57 105 115 140 201 l27 68 3 573 3 572 -573 -1
c-315 -1 -584 -4 -598 -6z"/>
<path d="M5202 2363 c4 -611 2 -589 58 -707 31 -65 119 -158 188 -200 97 -58
152 -71 287 -70 105 0 128 4 188 27 167 65 291 207 330 377 8 34 19 65 23 69
5 5 47 20 94 34 190 58 327 197 375 378 17 63 19 204 4 269 -38 166 -181 319
-347 370 -61 19 -94 20 -634 20 l-569 0 3 -567z"/>
<path d="M5093 1547 c-11 -24 -44 -69 -73 -100 l-52 -57 151 0 c83 0 151 1
151 3 0 1 -23 27 -51 57 -28 30 -59 71 -70 91 -10 21 -22 40 -27 43 -5 3 -18
-14 -29 -37z"/>
</g>
</svg>
